<svg width="23" height="23" viewBox="0 0 41 41" fill="none" xmlns="http://www.w3.org/2000/svg">
    <path fill-rule="evenodd" clip-rule="evenodd" d="M7.6268 26.4185C9.22867 24.8166 11.4013 23.9167 13.6667 23.9167H27.3333C29.5987 23.9167 31.7713 24.8166 33.3732 26.4185C34.9751 28.0204 35.875 30.193 35.875 32.4584V35.875C35.875 36.8185 35.1102 37.5834 34.1667 37.5834C33.2232 37.5834 32.4583 36.8185 32.4583 35.875V32.4584C32.4583 31.0991 31.9184 29.7956 30.9573 28.8344C29.9961 27.8733 28.6926 27.3334 27.3333 27.3334H13.6667C12.3074 27.3334 11.0039 27.8733 10.0427 28.8344C9.08162 29.7956 8.54167 31.0991 8.54167 32.4584V35.875C8.54167 36.8185 7.77682 37.5834 6.83333 37.5834C5.88985 37.5834 5.125 36.8185 5.125 35.875V32.4584C5.125 30.193 6.02492 28.0204 7.6268 26.4185Z" fill="black"/>
    <path fill-rule="evenodd" clip-rule="evenodd" d="M20.4999 6.83335C17.6695 6.83335 15.3749 9.12789 15.3749 11.9584C15.3749 14.7888 17.6695 17.0834 20.4999 17.0834C23.3304 17.0834 25.6249 14.7888 25.6249 11.9584C25.6249 9.12789 23.3304 6.83335 20.4999 6.83335ZM11.9583 11.9584C11.9583 7.24092 15.7825 3.41669 20.4999 3.41669C25.2174 3.41669 29.0416 7.24092 29.0416 11.9584C29.0416 16.6758 25.2174 20.5 20.4999 20.5C15.7825 20.5 11.9583 16.6758 11.9583 11.9584Z" fill="black"/>
</svg>
