<svg width="23" height="23" viewBox="0 0 46 46" fill="none" xmlns="http://www.w3.org/2000/svg">
    <path fill-rule="evenodd" clip-rule="evenodd" d="M17.0899 4.65758C17.5133 5.62777 17.07 6.75748 16.0998 7.18086C13.5173 8.30783 11.2501 10.0503 9.49658 12.2559C7.74303 14.4614 6.55647 17.063 6.04063 19.8331C5.52479 22.6032 5.69539 25.4575 6.5375 28.1464C7.3796 30.8354 8.86759 33.2771 10.8714 35.2581C12.8751 37.2391 15.3337 38.6991 18.0321 39.5105C20.7304 40.3218 23.5865 40.4598 26.3505 39.9124C29.1145 39.3649 31.7024 38.1487 33.8878 36.3701C36.0732 34.5915 37.7896 32.3046 38.8871 29.7094C39.2993 28.7344 40.4239 28.2782 41.3989 28.6905C42.3738 29.1028 42.83 30.2274 42.4177 31.2023C41.0764 34.3743 38.9786 37.1694 36.3075 39.3432C33.6364 41.5171 30.4735 43.0036 27.0953 43.6726C23.717 44.3417 20.2263 44.1731 16.9283 43.1814C13.6302 42.1898 10.6254 40.4053 8.1763 37.9841C5.72725 35.5629 3.9086 32.5785 2.87936 29.2921C1.85012 26.0056 1.64161 22.517 2.27208 19.1313C2.90255 15.7457 4.35279 12.566 6.49602 9.87026C8.63924 7.17455 11.4102 5.04489 14.5666 3.66748C15.5368 3.2441 16.6665 3.68739 17.0899 4.65758Z" fill="black"/>
    <path fill-rule="evenodd" clip-rule="evenodd" d="M21.6446 2.47805C22.0041 2.1186 22.4916 1.91667 22.9999 1.91667C25.7686 1.91667 28.5102 2.462 31.0682 3.52154C33.6261 4.58108 35.9503 6.13406 37.9081 8.09183C39.8659 10.0496 41.4188 12.3738 42.4784 14.9318C43.5379 17.4897 44.0833 20.2313 44.0833 23C44.0833 24.0585 43.2251 24.9167 42.1666 24.9167H22.9999C21.9414 24.9167 21.0833 24.0585 21.0833 23V3.83333C21.0833 3.325 21.2852 2.83749 21.6446 2.47805ZM24.9166 5.85681V21.0833H40.1431C39.9634 19.476 39.5582 17.8988 38.9368 16.3987C38.0699 14.3058 36.7993 12.4042 35.1975 10.8024C33.5957 9.2006 31.6941 7.92997 29.6012 7.06308C28.1011 6.44173 26.5239 6.03651 24.9166 5.85681Z" fill="black"/>
</svg>
