<svg width="23" height="23" viewBox="0 0 35 35" fill="none" xmlns="http://www.w3.org/2000/svg">
    <path fill-rule="evenodd" clip-rule="evenodd" d="M22.9688 26.25H29.5312V4.375H22.9688V26.25ZM14.2188 21.875H20.7812V4.375H14.2188V21.875ZM5.46875 30.625H12.0312V4.375H5.46875V30.625ZM3.28125 32.8125H31.7188V2.1875H3.28125V32.8125ZM31.7188 0H3.28125C2.70109 0 2.14469 0.230468 1.73445 0.640704C1.32422 1.05094 1.09375 1.60734 1.09375 2.1875L1.09375 32.8125C1.09375 33.3927 1.32422 33.9491 1.73445 34.3593C2.14469 34.7695 2.70109 35 3.28125 35H31.7188C32.2989 35 32.8553 34.7695 33.2655 34.3593C33.6758 33.9491 33.9062 33.3927 33.9062 32.8125V2.1875C33.9062 1.60734 33.6758 1.05094 33.2655 0.640704C32.8553 0.230468 32.2989 0 31.7188 0V0Z" fill="black"/>
</svg>
