<svg width="94" height="48.5" viewBox="0 0 188 97" fill="none" xmlns="http://www.w3.org/2000/svg">
    <g clip-path="url(#clip0_3_1647)">
        <path d="M153.939 6.35975L159.226 5.49043V17.5694H173.521V21.184C173.521 23.4716 171.682 25.3018 169.384 25.3018H159.226V41.5901C159.226 44.7929 159.731 47.1263 160.742 48.4989C161.754 49.8715 163.5 50.5578 165.982 50.5578C167.683 50.5578 169.154 50.3748 170.487 50.0088C171.774 49.6428 172.831 49.3225 173.613 49.0022L174.578 53.5776C174.946 55.2705 174.21 56.7346 172.096 57.4666C170.993 57.8327 168.419 58.519 164.787 58.519C161.937 58.519 159.501 58.153 157.617 57.3751C155.686 56.5973 154.169 55.4992 153.02 54.0351C151.871 52.571 151.09 50.8324 150.63 48.7277C150.17 46.6688 149.94 44.2896 149.94 41.6359V11.0266C149.94 8.73895 151.641 6.72578 153.939 6.35975Z" fill="#0070AD"/>
        <path d="M187.816 5.85647C187.816 7.59511 187.265 8.96772 186.115 9.9743C184.966 10.9809 183.633 11.4842 182.116 11.4842C180.508 11.4842 179.175 10.9809 178.025 9.9743C176.876 8.96772 176.325 7.59511 176.325 5.85647C176.325 4.07207 176.876 2.65371 178.025 1.64713C179.175 0.640544 180.508 0.137253 182.116 0.137253C183.633 0.137253 184.966 0.640544 186.115 1.69288C187.265 2.74521 187.816 4.07207 187.816 5.85647Z" fill="#FF4019"/>
        <path d="M186.759 57.6039H184.139C180.416 57.6039 177.428 54.6299 177.428 50.9239V17.5694H180.599C184.001 17.5694 186.759 20.3146 186.759 23.7004V57.6039Z" fill="#0070AD"/>
        <path d="M109.858 37.8383C109.858 34.3153 110.364 31.2498 111.421 28.5961C112.478 25.9423 113.857 23.7462 115.604 22.0075C117.351 20.2689 119.327 18.942 121.58 18.0269C123.832 17.1576 126.13 16.7001 128.475 16.7001C133.99 16.7001 138.311 18.393 141.391 21.8245C144.471 25.256 146.033 30.3347 146.033 37.1062C146.033 37.6095 146.033 38.2043 145.987 38.8449C145.942 39.4854 145.942 40.0345 145.896 40.5835H119.465C119.741 43.7863 120.844 46.257 122.867 48.0414C124.889 49.78 127.831 50.6951 131.646 50.6951C133.898 50.6951 135.967 50.5121 137.806 50.1003C138.265 50.0088 138.725 49.9173 139.139 49.78C140.839 49.3682 142.494 50.5121 142.77 52.205L143.459 56.3686C142.954 56.6431 142.264 56.8718 141.345 57.1464C140.472 57.4209 139.414 57.6954 138.265 57.9242C137.116 58.153 135.875 58.336 134.542 58.4732C133.209 58.6105 131.876 58.702 130.497 58.702C126.958 58.702 123.924 58.1987 121.304 57.1464C118.684 56.094 116.569 54.6757 114.869 52.7998C113.168 50.9239 111.927 48.7734 111.099 46.257C110.272 43.6033 109.858 40.858 109.858 37.8383ZM136.794 33.7205C136.794 32.4394 136.61 31.2498 136.243 30.1059C135.875 28.9621 135.369 27.9555 134.68 27.1319C133.99 26.3084 133.163 25.6221 132.152 25.1645C131.141 24.6612 129.945 24.4325 128.566 24.4325C127.142 24.4325 125.9 24.707 124.797 25.256C123.74 25.8051 122.821 26.4914 122.085 27.3607C121.35 28.23 120.752 29.2366 120.339 30.3347C119.925 31.4328 119.649 32.5766 119.511 33.7662L136.794 33.7205Z" fill="#0070AD"/>
        <path d="M70.0518 37.518C70.0518 40.675 69.5922 43.5575 68.7188 46.1655C67.8455 48.7734 66.5584 50.9696 64.9036 52.8455C63.2489 54.6757 61.3183 56.094 58.9741 57.1464C56.6758 58.153 54.1477 58.6562 51.3437 58.6562C48.5398 58.6562 46.0577 58.153 43.7594 57.1464C41.4611 56.1398 39.5305 54.6757 37.8758 52.8455C36.221 51.0154 34.9799 48.7734 34.0606 46.1655C33.1413 43.5575 32.6816 40.675 32.6816 37.518C32.6816 34.361 33.1413 31.4785 34.0606 28.9163C34.9799 26.3541 36.267 24.1122 37.9217 22.282C39.5765 20.4519 41.553 19.0335 43.8513 18.0269C46.1496 17.0204 48.6318 16.5171 51.3437 16.5171C54.0557 16.5171 56.5838 17.0204 58.8821 18.0269C61.1804 19.0335 63.1569 20.4519 64.8117 22.282C66.4665 24.1122 67.7076 26.3084 68.6269 28.9163C69.5922 31.4785 70.0518 34.361 70.0518 37.518ZM60.8587 37.518C60.8587 33.5375 60.0313 30.3804 58.3765 28.047C56.7217 25.7136 54.3775 24.5697 51.4357 24.5697C48.4479 24.5697 46.1496 25.7136 44.4948 28.047C42.8401 30.3804 42.0127 33.5375 42.0127 37.518C42.0127 41.5444 42.8401 44.7471 44.4948 47.0806C46.1496 49.414 48.4939 50.6036 51.4357 50.6036C54.4235 50.6036 56.7217 49.414 58.3765 47.0806C60.0313 44.7471 60.8587 41.5444 60.8587 37.518Z" fill="#0070AD"/>
        <path d="M30.0157 42.3222C29.556 41.0411 28.8206 39.8972 27.8093 38.9364C26.7981 37.9298 25.557 37.0605 23.9942 36.2369C22.4773 35.4591 20.5927 34.6355 18.3863 33.812C17.0533 33.3544 15.9042 32.8969 14.9849 32.4851C14.0656 32.0733 13.3301 31.6158 12.7326 31.204C12.181 30.7922 11.7673 30.2889 11.5374 29.7857C11.3076 29.2824 11.1697 28.6876 11.1697 28.047C11.1697 26.7202 11.7673 25.7593 12.9624 25.1188C14.1575 24.4782 15.6744 24.1579 17.559 24.1579C19.0758 24.1579 20.5008 24.2495 21.7418 24.4782L22.5233 24.6155C25.2352 24.9358 27.7634 23.2429 28.315 20.5434L28.7286 18.5302C26.89 17.8897 25.0973 17.5237 23.9022 17.2949C22.2934 16.9746 19.8573 16.6543 17.1453 16.6543C12.4568 16.6543 8.7795 17.7067 6.06752 19.8113C3.35554 21.916 1.97657 24.8443 1.97657 28.5046C1.97657 30.3805 2.25236 31.9818 2.84992 33.3087C3.44747 34.5898 4.22889 35.7336 5.28611 36.6487C6.29735 37.5638 7.53843 38.3874 8.9174 39.0737C10.3423 39.76 11.8592 40.4005 13.5599 41.0411C16.3179 42.0477 18.2944 43.0085 19.5355 43.8778C20.7306 44.7471 21.3282 45.8452 21.3282 47.1721C21.3282 48.5904 20.7766 49.597 19.6274 50.1918C18.4783 50.7866 16.6856 51.0611 14.2494 51.0611C11.6753 51.0611 9.69882 50.7866 8.45774 50.4663C7.4465 50.2376 6.80298 50.0088 5.92963 50.0088C3.53941 50.0088 1.33305 51.5187 0.643563 53.8979L0.137939 55.8195C1.24112 56.3228 3.86117 57.1921 5.65383 57.6497C7.58439 58.153 9.97461 58.5647 14.2494 58.5647C19.5355 58.5647 23.5805 57.6039 26.4304 55.6365C29.2802 53.6691 30.7052 50.7866 30.7052 46.9433C30.7052 45.1589 30.4753 43.6033 30.0157 42.3222Z" fill="#0070AD"/>
        <path d="M182.576 85.3307C185.38 85.3307 187.586 83.043 187.632 80.2977C187.448 79.1082 187.035 76.912 183.909 76.912C180.507 76.912 179.404 81.6246 176.646 84.6443C176.417 86.383 174.762 87.8929 172.739 88.1674C173.245 88.6707 174.348 88.991 175.681 88.991C178.117 88.991 181.059 88.2589 182.622 86.749C180.553 86.7948 179.22 85.4679 179.083 83.6378C180.14 84.8731 181.243 85.3307 182.576 85.3307Z" fill="#12ABDB"/>
        <path d="M160.88 77.8271C160.88 76.3172 160.788 75.3106 159.823 75.3106C159.363 75.3106 159.18 75.4021 158.766 75.5394C159.134 80.5723 157.984 85.0561 156.56 85.0561C154.721 85.0561 155.64 74.2125 151.733 74.2125C148.148 74.2125 147.642 82.86 147.228 82.86C146.953 82.86 146.907 80.5723 146.907 78.8794C147.045 78.0558 147.137 77.3238 147.137 76.729C147.137 75.9054 146.815 74.5328 144.976 75.2191C145.022 81.3958 143.781 85.1476 142.402 85.1476C140.334 85.1476 140.334 79.5199 140.334 78.0101C140.334 76.5002 140.426 74.487 138.173 75.2191C137.851 80.618 136.427 84.6901 135.507 84.6901C134.174 84.6901 134.45 75.3563 131.554 75.3563C128.98 75.3563 128.153 84.1868 127.601 84.1868C126.636 84.1868 127.923 74.2583 124.154 74.2583C122.177 74.2583 121.396 77.5983 120.614 81.3043C120.476 82.0364 120.293 82.0364 120.293 81.2128C120.293 80.5265 120.247 79.7945 120.293 79.1539C121.258 75.4021 120.063 74.0295 118.362 75.0361C118.914 81.9449 115.742 85.2849 113.306 85.2849C112.432 85.2849 111.743 84.9189 111.237 84.3241C114.179 82.5397 115.466 80.4808 115.466 78.5134C115.466 76.3629 114.225 75.0818 112.157 75.0818C109.261 75.0818 107.652 78.0558 107.652 80.5723C107.652 81.9449 107.928 83.0887 108.341 84.0496C107.33 84.5071 106.411 84.9189 105.538 85.3307C105.446 82.7227 105.17 80.0232 104.94 77.5068C103.377 77.095 102.963 77.8271 102.826 79.1997C102.55 82.3109 101.401 84.2783 100.343 84.2783C99.562 84.2783 99.1023 83.3632 99.0564 82.3567C98.7806 77.3695 102.826 75.9511 104.986 76.6832C105.446 75.5851 104.94 74.8073 103.009 74.8073C100.665 74.8073 98.9185 76.2257 97.6314 78.0101C96.7581 79.1997 95.7928 80.069 94.4598 81.1213C94.5058 80.801 94.5058 80.5265 94.5058 80.252C94.5058 76.729 92.5752 75.1733 90.7366 75.1733C89.2197 75.1733 88.2544 76.0884 87.7028 77.461C87.5649 76.0884 87.2891 75.4479 86.4617 75.4479C86.094 75.4479 85.6344 75.5394 85.1287 75.8139C85.3586 76.5917 85.4505 78.3303 85.4505 79.4284C85.4505 83.6835 84.2094 85.5594 83.0603 85.5594C81.7273 85.5594 81.4974 80.5265 81.4055 78.5591C81.2216 78.5134 81.0378 78.4218 80.762 78.4218C79.5669 78.4218 79.383 80.0232 79.1072 81.5331C78.7855 83.1802 77.8202 85.2849 76.3952 85.2849C75.5219 85.2849 75.0163 84.4613 74.9243 82.9972C74.7864 79.9775 77.2686 76.4544 81.2216 77.5525C81.7273 76.3629 80.9459 75.4479 79.2911 75.4479C76.4412 75.4479 74.051 77.5983 73.0397 80.1147C71.9825 82.4482 70.1439 85.834 66.4207 85.834C63.8006 85.834 61.7781 83.5463 61.7781 78.7421C61.7781 74.5785 64.3982 70.6437 67.2021 70.6437C69.1786 70.6437 69.5923 72.5654 69.4544 74.3498C70.4657 75.1733 72.1204 74.3955 72.1204 72.3824C72.1204 70.964 70.9713 68.6306 67.294 68.6306C62.7434 68.6306 58.7444 73.1602 58.7444 79.0624C58.7444 84.8274 61.6862 88.2131 65.8231 88.2131C68.4432 88.2131 70.9253 86.749 72.626 84.0038C73.0397 86.383 74.6945 87.4353 75.9356 87.4353C77.9121 87.4353 79.2451 86.1542 79.9346 84.4156C80.3943 86.1542 81.3136 87.4353 82.8764 87.4353C83.9796 87.4353 84.807 86.8863 85.4505 86.017C85.1747 92.0565 84.8529 95.9455 88.4842 95.1677C87.9327 93.4291 87.7488 90.3178 87.7488 87.4811C87.7488 79.7945 89.0358 77.2323 90.6446 77.2323C91.7938 77.2323 92.1615 78.6964 92.1615 80.252C92.1615 81.0756 92.0696 82.0364 91.8857 82.9515C89.9092 84.1868 88.3463 85.1476 88.3463 86.383C88.3463 87.3438 89.0818 87.4353 89.7253 87.4353C91.2422 87.4353 93.0349 85.9712 94.0461 83.1802C94.9194 82.6312 95.7928 82.0364 96.6661 81.2128C96.6202 81.4873 96.6202 81.7619 96.6202 82.0821C96.6202 84.8274 97.8153 86.5203 99.7918 86.5203C101.309 86.5203 102.458 85.4679 103.239 83.8665C103.285 84.7816 103.331 85.6509 103.331 86.4287C100.251 87.8471 96.85 89.2655 96.85 93.2918C96.85 95.3507 98.3669 96.9063 100.297 96.9063C104.572 96.9063 105.584 92.3767 105.584 87.1608C106.962 86.566 108.02 86.1085 109.215 85.5137C110.226 86.7948 111.651 87.4353 112.938 87.4353C115.374 87.4353 117.167 86.1542 118.638 83.5463C118.914 85.5137 119.419 87.4353 120.476 87.4353C122.407 87.4353 122.775 77.461 124.2 77.461C125.303 77.461 124.384 88.2589 127.279 88.2589C129.761 88.2589 130.221 78.7421 131.416 78.7421C132.29 78.7421 132.336 87.4353 135.048 87.4353C136.381 87.4353 137.806 85.834 138.541 82.5397C138.863 84.7359 140.012 87.4353 142.172 87.4353C143.459 87.4353 144.562 86.1542 145.39 84.4613C145.62 86.2 146.125 87.4353 147.091 87.4353C149.619 87.4353 149.527 77.461 151.503 77.461C153.066 77.461 152.561 87.4353 156.284 87.4353C158.03 87.4353 158.858 85.9255 159.363 84.0496C160.053 86.7948 161.156 87.4353 162.029 87.4353C162.581 87.4353 163.041 87.2523 163.592 86.566C160.65 85.2392 160.88 80.7553 160.88 77.8271ZM100.389 94.9389C99.516 94.9389 99.0104 94.1154 99.0104 93.1545C99.0104 90.5923 100.895 89.2197 103.239 88.0759C103.101 93.7036 101.814 94.9389 100.389 94.9389ZM111.927 76.8205C112.8 76.8205 113.306 77.5983 113.214 78.7421C113.122 80.069 112.157 81.6246 110.456 82.8142C109.537 80.3435 110.18 76.8205 111.927 76.8205Z" fill="#0070AD"/>
        <path d="M139.277 73.0687C140.104 73.0229 140.656 72.3366 140.702 71.513C140.702 70.6895 140.15 70.0032 139.323 70.0489C138.495 70.0947 137.806 70.781 137.806 71.6045C137.806 72.4281 138.495 73.1144 139.277 73.0687Z" fill="#0070AD"/>
        <path d="M159.777 73.4805C160.513 73.4347 161.156 72.7941 161.156 71.9706C161.156 71.1928 160.559 70.5522 159.823 70.5522C159.088 70.598 158.444 71.2385 158.444 72.0621C158.444 72.8857 159.042 73.5262 159.777 73.4805Z" fill="#0070AD"/>
        <path d="M187.632 80.1147C187.586 76.9577 186.069 74.304 183.725 72.1536C181.978 70.5522 179.864 69.3169 177.658 68.4018C177.474 68.3103 177.29 68.2645 177.106 68.173C174.394 71.4215 165.017 73.8007 165.017 80.618C165.017 83.2717 166.718 85.7424 169.154 86.749C170.579 87.2981 172.004 87.2981 173.429 86.8405C174.716 86.4288 175.727 85.6509 176.6 84.6901C179.358 81.6704 180.462 76.9577 183.863 76.9577C186.943 76.9577 187.356 79.1539 187.586 80.3435C187.632 80.2978 187.632 80.252 187.632 80.1147Z" fill="#0070AD"/>
        <path d="M22.3854 77.2323C23.5806 77.2323 24.4999 77.461 25.0974 77.8728C25.7409 78.2846 26.0627 78.9709 26.0627 79.886C26.0627 80.3435 25.9708 80.7553 25.8329 81.1213C25.649 81.4416 25.4192 81.7619 25.0974 81.9449C24.7757 82.1737 24.362 82.3109 23.9023 82.4024C23.4427 82.4939 22.8911 82.5397 22.2935 82.5397H21.5581V85.4222H20.0872V77.4153C20.4089 77.3238 20.8226 77.278 21.2363 77.278C21.65 77.278 22.0177 77.2323 22.3854 77.2323ZM22.4774 78.5134C22.1097 78.5134 21.7879 78.5134 21.5581 78.5591V81.3043H22.2935C23.029 81.3043 23.5346 81.2128 23.9483 80.9841C24.316 80.801 24.5458 80.3893 24.5458 79.8402C24.5458 79.5657 24.4999 79.3369 24.4079 79.1539C24.316 78.9709 24.1781 78.8336 23.9942 78.7421C23.8104 78.6506 23.5806 78.5591 23.3507 78.5134C23.029 78.5591 22.7991 78.5134 22.4774 78.5134Z" fill="#0070AD"/>
        <path d="M28.7746 79.1539C29.2343 79.1539 29.648 79.1997 29.9697 79.3369C30.2915 79.4742 30.5673 79.6114 30.7512 79.8402C30.935 80.069 31.0729 80.2977 31.1649 80.618C31.2568 80.9383 31.3028 81.2586 31.3028 81.6246V85.3307C31.0729 85.3764 30.7512 85.4222 30.2915 85.5137C29.8318 85.5594 29.3262 85.6052 28.7746 85.6052C28.4069 85.6052 28.0851 85.5594 27.7634 85.5137C27.4416 85.4222 27.2118 85.3307 26.982 85.1934C26.7521 85.0561 26.6142 84.8274 26.4763 84.5986C26.3384 84.3698 26.2925 84.0495 26.2925 83.6835C26.2925 83.3175 26.3384 83.043 26.4763 82.8142C26.6142 82.5854 26.7981 82.3567 27.0279 82.2194C27.2578 82.0821 27.5336 81.9449 27.8553 81.8991C28.1771 81.8534 28.4988 81.8076 28.8206 81.8076C28.9585 81.8076 29.1424 81.8076 29.3262 81.8534C29.5101 81.8534 29.6939 81.8991 29.8778 81.9449V81.7161C29.8778 81.5331 29.8778 81.3958 29.8318 81.2586C29.7859 81.1213 29.7399 80.984 29.602 80.8468C29.4641 80.7095 29.3722 80.6638 29.2343 80.5723C29.0504 80.5265 28.8666 80.4808 28.6367 80.4808C28.315 80.4808 27.9932 80.5265 27.7174 80.5723C27.4416 80.618 27.2118 80.6638 27.0279 80.7553L26.8441 79.6114C27.0279 79.5657 27.3037 79.4742 27.6255 79.4284C27.9932 79.1997 28.3609 79.1539 28.7746 79.1539ZM28.9125 84.4613C29.3722 84.4613 29.6939 84.4156 29.9238 84.3698V82.8142C29.8318 82.7684 29.7399 82.7684 29.602 82.7227C29.4641 82.6769 29.2803 82.6769 29.0964 82.6769C28.9585 82.6769 28.7746 82.6769 28.6367 82.7227C28.4529 82.7684 28.315 82.7684 28.1771 82.86C28.0392 82.9057 27.9472 82.9972 27.8553 83.1345C27.7634 83.226 27.7174 83.409 27.7174 83.5463C27.7174 83.8665 27.8094 84.0953 28.0392 84.2326C28.223 84.4156 28.5448 84.4613 28.9125 84.4613Z" fill="#0070AD"/>
        <path d="M35.6694 80.618C35.5315 80.5723 35.3936 80.5265 35.1638 80.4808C34.934 80.435 34.7041 80.435 34.4283 80.435C34.2905 80.435 34.1066 80.435 33.9227 80.4808C33.7389 80.5265 33.601 80.5265 33.555 80.5723V85.4679H32.176V79.6114C32.4518 79.5199 32.7736 79.4284 33.1873 79.3369C33.601 79.2454 34.0606 79.1997 34.5662 79.1997C34.6582 79.1997 34.7501 79.1997 34.888 79.1997C35.0259 79.1997 35.1178 79.2454 35.2557 79.2454C35.3936 79.2454 35.4856 79.2912 35.6235 79.3369C35.7614 79.3827 35.8533 79.3827 35.8993 79.4284L35.6694 80.618Z" fill="#0070AD"/>
        <path d="M36.5427 77.6898L37.9677 77.461V79.2912H40.174V80.4808H37.9677V82.9972C37.9677 83.5005 38.0596 83.8208 38.1975 84.0496C38.3354 84.2783 38.6112 84.3698 38.9789 84.3698C39.2547 84.3698 39.4845 84.3241 39.6684 84.2783C39.8523 84.2326 40.0361 84.1868 40.1281 84.1411L40.3579 85.2849C40.174 85.3764 39.9902 85.4222 39.7144 85.5137C39.4386 85.6052 39.1168 85.6052 38.795 85.6052C38.3354 85.6052 37.9677 85.5594 37.6919 85.4222C37.4161 85.2849 37.1403 85.1476 37.0024 84.9189C36.8185 84.6901 36.7266 84.4156 36.6347 84.0953C36.5427 83.775 36.5427 83.409 36.5427 82.9972V77.6898Z" fill="#0070AD"/>
        <path d="M49.3673 82.4024C49.3673 82.9057 49.2753 83.3175 49.1374 83.7293C48.9995 84.1411 48.8157 84.4613 48.5399 84.7359C48.2641 85.0104 47.9883 85.2391 47.6206 85.3764C47.2528 85.5137 46.8391 85.6052 46.4254 85.6052C46.0118 85.6052 45.5981 85.5137 45.2303 85.3764C44.8626 85.2391 44.5409 85.0104 44.311 84.7359C44.0352 84.4613 43.8514 84.0953 43.7135 83.7293C43.5756 83.3175 43.4836 82.9057 43.4836 82.4024C43.4836 81.8991 43.5756 81.4873 43.7135 81.0756C43.8514 80.6638 44.0812 80.3435 44.311 80.069C44.5868 79.7945 44.9086 79.5657 45.2303 79.4284C45.5981 79.2912 45.9658 79.1997 46.4254 79.1997C46.8391 79.1997 47.2528 79.2912 47.6206 79.4284C47.9883 79.5657 48.31 79.7945 48.5399 80.069C48.8157 80.3435 48.9995 80.7095 49.1374 81.0756C49.3213 81.4416 49.3673 81.8991 49.3673 82.4024ZM47.8964 82.4024C47.8964 81.8076 47.7585 81.3043 47.4827 80.9383C47.2069 80.5723 46.8391 80.3893 46.3795 80.3893C45.9198 80.3893 45.5521 80.5723 45.2763 80.9383C45.0005 81.3043 44.8626 81.7619 44.8626 82.4024C44.8626 83.043 45.0005 83.5005 45.2763 83.8665C45.5521 84.2326 45.9198 84.4156 46.3795 84.4156C46.8391 84.4156 47.2069 84.2326 47.4827 83.8665C47.7585 83.5005 47.8964 82.9972 47.8964 82.4024Z" fill="#0070AD"/>
        <path d="M52.6309 76.3629C52.9527 76.3629 53.2285 76.4087 53.5042 76.4544C53.7341 76.5002 53.9639 76.5459 54.0558 76.5917L53.78 77.7813C53.6421 77.7355 53.5043 77.6898 53.3204 77.644C53.1365 77.5983 52.9527 77.5983 52.7688 77.5983C52.539 77.5983 52.3551 77.644 52.1712 77.6898C51.9874 77.7355 51.8955 77.827 51.8035 77.9643C51.7116 78.1016 51.6656 78.2388 51.6197 78.3761C51.5737 78.5591 51.5737 78.7421 51.5737 78.9251V79.3369H53.826V80.5265H51.5737V85.4679H50.1028V78.8794C50.1028 78.1016 50.3326 77.461 50.7463 77.0035C51.16 76.5917 51.8035 76.3629 52.6309 76.3629Z" fill="#0070AD"/>
        <path d="M100.16 17.3864C97.5395 16.9289 94.7815 16.7001 91.8857 16.7001C88.8979 16.7001 86.1859 17.2034 83.8417 18.1642C81.4974 19.125 79.4749 20.4976 77.8202 22.2363C76.1654 23.9749 74.9243 26.0796 74.051 28.5045C73.1776 30.9752 72.7639 33.629 72.7639 36.5572C72.7639 39.6684 73.1776 42.4137 74.005 44.7929C74.8324 47.1721 75.9356 49.1395 77.4065 50.7408C78.8774 52.3422 80.6241 53.5318 82.6466 54.3554C84.6691 55.179 86.9214 55.5907 89.4035 55.5907C91.2881 55.5907 92.9429 55.362 94.3678 54.9044C95.6089 54.4926 96.6661 54.1266 97.4935 53.7148C97.4935 57.6039 95.8387 60.7152 90.6446 61.9963C88.5302 62.4995 85.6803 62.3623 81.8651 61.31C80.8079 63.2316 80.2104 66.5716 81.8192 68.539C83.2441 70.2319 86.7375 70.5522 88.9439 70.5522C93.9082 70.5522 99.2862 68.4475 101.814 66.1141C105.124 63.0943 106.779 58.3817 106.779 51.9304V18.8963C104.986 18.3472 102.734 17.8439 100.16 17.3864ZM97.4935 45.7994C96.7121 46.3485 95.7468 46.8518 94.5057 47.2636C93.2647 47.6753 91.9776 47.8584 90.5527 47.8584C88.0245 47.8584 85.9101 46.9433 84.3013 45.1589C82.6925 43.3287 81.8651 40.492 81.8651 36.5572C81.8651 32.9427 82.6925 30.0144 84.3933 27.7725C86.094 25.5306 88.4842 24.4325 91.6558 24.4325C93.0348 24.4325 94.184 24.4782 95.1033 24.6155C96.0226 24.7527 96.804 24.89 97.4016 25.0273V45.7994H97.4935Z" fill="#0070AD"/>
    </g>
    <defs>
        <clipPath id="clip0_3_1647">
            <rect width="188" height="97" fill="white"/>
        </clipPath>
    </defs>
</svg>
