<svg width="23" height="23" viewBox="0 0 55 55" fill="none" xmlns="http://www.w3.org/2000/svg">
    <path d="M27.477 4.58333C14.827 4.58333 4.58325 14.85 4.58325 27.5C4.58325 40.15 14.827 50.4167 27.477 50.4167C40.1499 50.4167 50.4166 40.15 50.4166 27.5C50.4166 14.85 40.1499 4.58333 27.477 4.58333ZM27.4999 45.8333C17.3708 45.8333 9.16659 37.6292 9.16659 27.5C9.16659 17.3708 17.3708 9.16666 27.4999 9.16666C37.6291 9.16666 45.8333 17.3708 45.8333 27.5C45.8333 37.6292 37.6291 45.8333 27.4999 45.8333Z" fill="black"/>
    <path d="M28.6458 16.0417H25.2083V29.7917L37.2395 37.0104L38.9582 34.1917L28.6458 28.0729V16.0417Z" fill="black"/>
</svg>
